<mxfile host="app.diagrams.net" modified="2023-12-28T09:17:17.094Z" agent="Mozilla/5.0 (Macintosh; Intel Mac OS X 10_15_7) AppleWebKit/537.36 (KHTML, like Gecko) Chrome/120.0.0.0 Safari/537.36" version="22.1.15" etag="yplawgcw2dnnLQpFeizI" type="github">
  <diagram name="Page-1" id="DmnIF4V8Kx2n7wP8Iptc">
    <mxGraphModel>
      <root>
        <mxCell id="0" />
        <mxCell id="1" parent="0" />
      </root>
    </mxGraphModel>
  </diagram>
</mxfile>
